# xmcd
# Track frame offsets:
# 150
# 22877
# 35807
# 53977
# 72552
# 89580
# 117217
# 135860
# 154152
# 179595
# 195497
# 211077
# 228320
#
# Disc length: 3283 seconds
# Revision: 3
# Processed by: cddbd v1.5.1PL0 Copyright (c) Steve Scherf et al.
# Submitted via: VisiTrax 2.9.10.220 - For more info visit www.synapsa.com
#
DISCID=b10cd10d
DTITLE=Mavis Staples - Lucky Peterson - Spirituals and Gospel
DYEAR=1996
DGENRE=Blues
TTITLE0=Nobody Knows The Trouble I've Seen
TTITLE1=A Rusty Old Halo
TTITLE2=He's Got The Whole World In His Hands
TTITLE3=If I Could Hear My Mother Pray Again
TTITLE4=Wade In The Water
TTITLE5=Precious Lord Take My Hand
TTITLE6=I'll Fly Away From Here
TTITLE7=Were You There
TTITLE8=Go Down, Moses
TTITLE9=Steal Away
TTITLE10=Swing Low, Sweet Chariot
TTITLE11=Down By The Riverside
TTITLE12=Stand By Me
EXTD=
EXTT0=
EXTT1=
EXTT2=
EXTT3=
EXTT4=
EXTT5=
EXTT6=
EXTT7=
EXTT8=
EXTT9=
EXTT10=
EXTT11=
EXTT12=
PLAYORDER=
